HIERARCHY
ROOT hip
{
	OFFSET 0.000000 0.000000 0.000000
	CHANNELS 6 Xposition Yposition Zposition Xrotation Zrotation Yrotation 
	JOINT abdomen
	{
		OFFSET 0.000000 3.422050 0.000000
		CHANNELS 3 Xrotation Zrotation Yrotation 
		JOINT chest
		{
			OFFSET 0.000000 8.486693 -0.684411
			CHANNELS 3 Xrotation Zrotation Yrotation 
			JOINT neck
			{
				OFFSET 0.000000 10.266162 -0.273764
				CHANNELS 3 Xrotation Zrotation Yrotation 
				JOINT head
				{
					OFFSET 0.000000 3.148285 0.000000
					CHANNELS 3 Xrotation Zrotation Yrotation 
					End Site
					{
						OFFSET 0.000000 3.148289 0.000000
					}
				}
			}
			JOINT lCollar
			{
				OFFSET 3.422053 6.707223 -0.821293
				CHANNELS 3 Yrotation Zrotation Xrotation 
				JOINT lShldr
				{
					OFFSET 3.285171 0.000000 0.000000
					CHANNELS 3 Zrotation Yrotation Xrotation 
					JOINT lForeArm
					{
						OFFSET 10.129278 0.000000 0.000000
						CHANNELS 3 Yrotation Zrotation Xrotation 
						JOINT lHand
						{
							OFFSET 8.486692 0.000000 0.000000
							CHANNELS 3 Zrotation Yrotation Xrotation 
							End Site
							{
								OFFSET 4.106464 0.000000 0.000000
							}
						}
					}
				}
			}
			JOINT rCollar
			{
				OFFSET -3.558935 6.707223 -0.821293
				CHANNELS 3 Yrotation Zrotation Xrotation 
				JOINT rShldr
				{
					OFFSET -3.148289 0.000000 0.000000
					CHANNELS 3 Zrotation Yrotation Xrotation 
					JOINT rForeArm
					{
						OFFSET -10.266159 0.000000 0.000000
						CHANNELS 3 Yrotation Zrotation Xrotation 
						JOINT rHand
						{
							OFFSET -8.349810 0.000000 0.000000
							CHANNELS 3 Zrotation Yrotation Xrotation 
							End Site
							{
								OFFSET -4.106464 0.000000 0.000000
							}
						}
					}
				}
			}
		}
	}
	JOINT lThigh
	{
		OFFSET 5.338403 -1.642589 1.368821
		CHANNELS 3 Xrotation Zrotation Yrotation 
		JOINT lShin
		{
			OFFSET -2.053232 -20.121670 0.000000
			CHANNELS 3 Xrotation Zrotation Yrotation 
			JOINT lFoot
			{
				OFFSET 0.000000 -19.300380 -1.231939
				CHANNELS 3 Xrotation Yrotation Zrotation 
				End Site
				{
					OFFSET 0.000000 -2.463878 4.653993
				}
			}
		}
	}
	JOINT rThigh
	{
		OFFSET -5.338403 -1.642589 1.368821
		CHANNELS 3 Xrotation Zrotation Yrotation 
		JOINT rShin
		{
			OFFSET 2.053232 -20.121670 0.000000
			CHANNELS 3 Xrotation Zrotation Yrotation 
			JOINT rFoot
			{
				OFFSET 0.000000 -19.300380 -1.231939
				CHANNELS 3 Xrotation Yrotation Zrotation 
				End Site
				{
					OFFSET 0.000000 -2.463878 4.653993
				}
			}
		}
	}
}
MOTION
Frames: 20
Frame Time: 0.033325
0.000000 43.528500 0.000000 0.000000 0.000000 0.000000 0.000000 0.000000 0.000000 0.000000 0.000000 0.000000 0.000000 0.000000 0.000000 0.000000 0.000000 0.000000 0.000000 0.000000 0.000000 0.000000 0.000000 0.000000 0.000000 0.000000 0.000000 0.000000 0.000000 0.000000 0.000000 0.000000 0.000000 0.000000 0.000000 0.000000 0.000000 0.000000 0.000000 0.000000 0.000000 0.000000 0.000000 0.000000 0.000000 0.000000 0.000000 0.000000 0.000000 0.000000 0.000000 0.000000 0.000000 0.000000 0.000000 0.000000 0.000000 0.000000 0.000000 0.000000 
0.249304 4.392780 30.214615 -90.001877 -0.011127 0.011128 0.885378 0.681729 -0.195823 19.264568 0.827176 -0.432486 -14.011083 0.000000 0.000000 -17.004086 0.000000 0.000000 -3.157454 19.647308 -36.604580 -52.000320 -44.000996 -60.000168 -122.006645 -1.998168 -9.004379 -20.001616 -12.002527 -18.999586 3.141810 -19.668779 -36.611534 42.996479 40.998016 -60.005157 106.993622 1.996323 -8.998858 29.997852 19.999054 -15.003881 -35.071808 14.722067 0.486572 84.001801 3.877521 -0.587261 37.854870 2.493833 -2.817050 -35.071674 -14.726494 -0.488895 84.001953 -3.877773 0.582311 37.854939 -2.498270 2.814881 
0.249304 4.392780 30.146530 -90.001877 -0.011127 0.011128 1.329516 0.681825 -0.195933 18.158171 0.827192 -0.432357 -13.290235 0.000000 0.000000 -16.283117 0.000000 0.000000 -3.534163 19.450731 -35.718300 -51.548939 -43.890480 -60.011135 -122.450485 -1.998186 -9.004360 -19.801985 -10.214771 -18.467333 3.510076 -19.467344 -35.726719 43.050369 41.220184 -60.007401 107.326920 1.996451 -8.998816 29.621700 18.189924 -14.839918 -35.071804 14.722065 0.486572 84.001801 3.877521 -0.587261 37.854870 2.493833 -2.817050 -35.071671 -14.726494 -0.488895 84.001953 -3.877773 0.582311 37.854939 -2.498270 2.814881 
0.249304 4.392780 30.078445 -90.001884 -0.011127 0.011128 1.773760 0.681920 -0.196042 17.050112 0.827210 -0.432228 -12.568931 0.000000 0.000000 -15.561689 0.000000 0.000000 -3.907484 19.248510 -34.833691 -51.098297 -43.779892 -60.020916 -122.894417 -1.998206 -9.004343 -19.585606 -8.420983 -17.929111 3.874873 -19.260391 -34.843594 43.104416 41.442348 -60.009338 107.660248 1.996578 -8.998773 29.242188 16.373995 -14.664401 -35.071812 14.722068 0.486571 84.001801 3.877521 -0.587261 37.854870 2.493833 -2.817050 -35.071678 -14.726496 -0.488894 84.001953 -3.877773 0.582311 37.854942 -2.498270 2.814881 
0.249304 4.392780 30.010361 -90.001877 -0.011127 0.011128 2.218099 0.682017 -0.196151 15.940593 0.827231 -0.432099 -11.847223 0.000000 0.000000 -14.839867 0.000000 0.000000 -4.277289 19.040718 -33.950901 -50.648430 -43.669224 -60.029469 -123.338463 -1.998224 -9.004324 -19.352230 -6.622296 -17.384167 4.236072 -19.047997 -33.962307 43.158653 41.664543 -60.011024 107.993607 1.996706 -8.998728 28.858780 14.552294 -14.477256 -35.071808 14.722067 0.486572 84.001801 3.877521 -0.587261 37.854870 2.493833 -2.817050 -35.071674 -14.726494 -0.488895 84.001953 -3.877773 0.582311 37.854939 -2.498270 2.814881 
0.249304 4.392780 29.942276 -90.001877 -0.011127 0.011128 2.662517 0.682115 -0.196259 14.829815 0.827254 -0.431970 -11.125172 0.000000 0.000000 -14.117693 0.000000 0.000000 -4.643450 18.827423 -33.070042 -50.199314 -43.558483 -60.036781 -123.782593 -1.998243 -9.004307 -19.101563 -4.819875 -16.831728 4.593554 -18.830236 -33.082993 43.213066 41.886734 -60.012413 108.327011 1.996834 -8.998688 28.470947 12.725878 -14.278398 -35.071808 14.722067 0.486572 84.001801 3.877521 -0.587261 37.854866 2.493832 -2.817050 -35.071674 -14.726494 -0.488894 84.001953 -3.877773 0.582311 37.854939 -2.498270 2.814881 
0.249304 4.392780 29.874191 -90.001877 -0.011127 0.011128 3.107003 0.682214 -0.196366 13.717989 0.827280 -0.431842 -10.402833 0.000000 0.000000 -13.395235 0.000000 0.000000 -5.005846 18.608713 -32.191273 -49.750961 -43.447689 -60.042908 -124.226768 -1.998263 -9.004289 -18.833271 -3.014908 -16.271008 4.947204 -18.607195 -32.205772 43.267666 42.108948 -60.013554 108.660477 1.996963 -8.998652 28.078154 10.895811 -14.067679 -35.071812 14.722067 0.486572 84.001801 3.877521 -0.587261 37.854870 2.493833 -2.817050 -35.071678 -14.726496 -0.488894 84.001953 -3.877773 0.582311 37.854942 -2.498270 2.814881 
0.249304 4.392780 29.806107 -90.001869 -0.011127 0.011128 3.551540 0.682313 -0.196473 12.605328 0.827308 -0.431714 -9.680265 0.000000 0.000000 -12.672545 0.000000 0.000000 -5.364357 18.384670 -31.314711 -49.303402 -43.336845 -60.047821 -124.671021 -1.998283 -9.004272 -18.546974 -1.208614 -15.701198 5.296905 -18.378948 -31.330770 43.322445 42.331158 -60.014381 108.993904 1.997092 -8.998608 27.679876 9.063191 -13.844947 -35.071808 14.722067 0.486572 84.001801 3.877521 -0.587261 37.854870 2.493833 -2.817050 -35.071674 -14.726494 -0.488895 84.001953 -3.877773 0.582311 37.854939 -2.498270 2.814881 
0.249304 4.392780 29.738022 -90.001877 -0.011127 0.011128 3.996120 0.682413 -0.196578 11.492034 0.827339 -0.431587 -8.957524 0.000000 0.000000 -11.949684 0.000000 0.000000 -5.718875 18.155378 -30.440491 -48.856632 -43.225975 -60.051548 -125.115311 -1.998302 -9.004256 -18.242256 0.597768 -15.121490 5.642552 -18.145596 -30.458126 43.377434 42.553383 -60.014938 109.327385 1.997220 -8.998569 27.275564 7.229129 -13.609996 -35.071808 14.722067 0.486572 84.001801 3.877521 -0.587261 37.854870 2.493833 -2.817050 -35.071674 -14.726494 -0.488895 84.001953 -3.877773 0.582311 37.854939 -2.498270 2.814881 
0.249304 4.392780 29.669937 -90.001877 -0.011127 0.011128 4.440726 0.682514 -0.196683 10.378319 0.827372 -0.431460 -8.234671 0.000000 0.000000 -11.226707 0.000000 0.000000 -6.069284 17.920927 -29.568722 -48.410641 -43.115078 -60.054092 -125.559616 -1.998322 -9.004240 -17.918629 2.402978 -14.531021 5.984038 -17.907221 -29.587946 43.432613 42.775608 -60.015194 109.660881 1.997349 -8.998532 26.864679 5.394748 -13.362610 -35.071808 14.722067 0.486572 84.001801 3.877521 -0.587261 37.854870 2.493833 -2.817050 -35.071674 -14.726493 -0.488894 84.001953 -3.877773 0.582311 37.854931 -2.498269 2.814881 
0.249304 4.392780 29.601852 -90.001877 -0.011127 0.011128 4.885345 0.682616 -0.196787 9.264394 0.827408 -0.431334 -7.511756 0.000000 0.000000 -10.503671 0.000000 0.000000 -6.415487 17.681425 -28.699547 -47.965469 -43.004177 -60.055443 -126.003944 -1.998342 -9.004224 -17.575586 4.205742 -13.928923 6.321262 -17.663923 -28.720341 43.487988 42.997837 -60.015179 109.994354 1.997479 -8.998493 26.446651 3.561180 -13.102518 -35.071808 14.722067 0.486572 84.001801 3.877521 -0.587261 37.854870 2.493833 -2.817050 -35.071674 -14.726494 -0.488895 84.001953 -3.877773 0.582311 37.854939 -2.498270 2.814881 
0.249304 4.392780 29.533768 -90.001877 -0.011127 0.011128 5.329965 0.682719 -0.196891 8.150468 0.827446 -0.431208 -6.788843 0.000000 0.000000 -9.780638 0.000000 0.000000 -6.757378 17.436951 -27.833055 -47.521069 -42.893246 -60.055592 -126.448265 -1.998363 -9.004208 -17.212551 6.004771 -13.314294 6.654131 -17.415798 -27.855433 43.543568 43.220070 -60.014866 110.327858 1.997608 -8.998459 26.020929 1.729571 -12.829442 -35.071808 14.722067 0.486572 84.001801 3.877521 -0.587261 37.854870 2.493833 -2.817050 -35.071674 -14.726496 -0.488895 84.001953 -3.877773 0.582311 37.854939 -2.498270 2.814881 
0.249304 4.392780 29.465683 -90.001884 -0.011127 0.011128 5.774570 0.682822 -0.196993 7.036755 0.827486 -0.431084 -6.065986 0.000000 0.000000 -9.057660 0.000000 0.000000 -7.094861 17.187611 -26.969370 -47.077492 -42.782333 -60.054588 -126.892570 -1.998382 -9.004189 -16.828907 7.798757 -12.686194 6.982553 -17.162947 -26.993319 43.599346 43.442291 -60.014244 110.661354 1.997738 -8.998424 25.586916 -0.098929 -12.543049 -35.071808 14.722067 0.486572 84.001801 3.877521 -0.587261 37.854870 2.493833 -2.817050 -35.071674 -14.726496 -0.488895 84.001953 -3.877773 0.582311 37.854942 -2.498270 2.814881 
0.249304 4.392780 29.397598 -90.001877 -0.011127 0.011128 6.219149 0.682926 -0.197095 5.923462 0.827529 -0.430960 -5.343246 0.000000 0.000000 -8.334797 0.000000 0.000000 -7.427849 16.933510 -26.108593 -46.634747 -42.671436 -60.052418 -127.336845 -1.998402 -9.004172 -16.423969 9.586395 -12.043648 7.306439 -16.905470 -26.134104 43.655323 43.664509 -60.013321 110.994827 1.997868 -8.998387 25.144014 -1.923176 -12.242987 -35.071808 14.722067 0.486572 84.001801 3.877521 -0.587261 37.854870 2.493833 -2.817050 -35.071674 -14.726496 -0.488895 84.001953 -3.877773 0.582311 37.854939 -2.498270 2.814881 
0.249304 4.392780 29.329514 -90.001877 -0.011127 0.011128 6.663688 0.683032 -0.197196 4.810799 0.827575 -0.430837 -4.620677 0.000000 0.000000 -7.612108 0.000000 0.000000 -7.756252 16.674753 -25.250830 -46.192822 -42.560570 -60.049091 -127.781090 -1.998423 -9.004156 -15.997017 11.366366 -11.385652 7.625710 -16.643480 -25.277887 43.711533 43.886734 -60.012100 111.328278 1.997999 -8.998354 24.691601 -3.742015 -11.928860 -35.071808 14.722067 0.486572 84.001801 3.877521 -0.587261 37.854870 2.493833 -2.817050 -35.071674 -14.726494 -0.488895 84.001953 -3.877773 0.582311 37.854939 -2.498270 2.814881 
0.249304 4.392780 29.261429 -90.001869 -0.011127 0.011128 7.108171 0.683137 -0.197296 3.698974 0.827622 -0.430715 -3.898337 0.000000 0.000000 -6.889651 0.000000 0.000000 -8.079990 16.411444 -24.396173 -45.751713 -42.449734 -60.044609 -128.225281 -1.998444 -9.004142 -15.547259 13.137351 -10.711143 7.940285 -16.377075 -24.424759 43.767956 44.108944 -60.010574 111.661705 1.998129 -8.998320 24.229046 -5.554310 -11.600250 -35.071808 14.722067 0.486572 84.001801 3.877521 -0.587261 37.854870 2.493832 -2.817050 -35.071674 -14.726494 -0.488895 84.001953 -3.877773 0.582311 37.854939 -2.498270 2.814881 
0.249304 4.392780 29.193344 -90.001869 -0.011127 0.011128 7.552591 0.683244 -0.197395 2.588199 0.827672 -0.430594 -3.176288 0.000000 0.000000 -6.167480 0.000000 0.000000 -8.398986 16.143698 -23.544720 -45.311462 -42.338955 -60.038990 -128.669403 -1.998465 -9.004125 -15.073849 14.898027 -10.019029 8.250093 -16.106377 -23.574820 43.824589 44.331135 -60.008724 111.995117 1.998260 -8.998288 23.755672 -7.358919 -11.256684 -35.071808 14.722067 0.486572 84.001801 3.877521 -0.587261 37.854870 2.493833 -2.817050 -35.071674 -14.726493 -0.488894 84.001953 -3.877773 0.582311 37.854935 -2.498270 2.814881 
0.249304 4.392780 29.125259 -90.001877 -0.011127 0.011128 7.996927 0.683351 -0.197493 1.478677 0.827724 -0.430475 -2.454580 0.000000 0.000000 -5.445652 0.000000 0.000000 -8.713164 15.871627 -22.696560 -44.872040 -42.228218 -60.032215 -129.113449 -1.998485 -9.004107 -14.575873 16.647076 -9.308155 8.555065 -15.831489 -22.728140 43.881443 44.553322 -60.006565 112.328499 1.998390 -8.998257 23.270794 -9.154716 -10.897662 -35.071808 14.722067 0.486572 84.001801 3.877521 -0.587261 37.854870 2.493833 -2.817050 -35.071674 -14.726494 -0.488895 84.001953 -3.877773 0.582311 37.854939 -2.498270 2.814881 
0.249304 4.392780 29.057175 -90.001884 -0.011127 0.011128 8.441175 0.683459 -0.197591 0.370617 0.827779 -0.430356 -1.733274 0.000000 0.000000 -4.724225 0.000000 0.000000 -9.022461 15.595342 -21.851776 -44.433456 -42.117550 -60.024319 -129.557373 -1.998506 -9.004093 -14.052360 18.383173 -8.577322 8.855138 -15.552528 -21.884813 43.938538 44.775497 -60.004082 112.661827 1.998521 -8.998224 22.773693 -10.940586 -10.522649 -35.071812 14.722068 0.486572 84.001801 3.877521 -0.587261 37.854870 2.493833 -2.817050 -35.071674 -14.726494 -0.488895 84.001953 -3.877773 0.582311 37.854942 -2.498270 2.814881 
0.249304 4.392780 28.989090 -90.001884 -0.011127 0.011128 8.885312 0.683568 -0.197687 -0.735781 0.827836 -0.430239 -1.012427 0.000000 0.000000 -4.003257 0.000000 0.000000 -9.326811 15.314964 -21.010448 -43.995750 -42.006969 -60.015301 -130.001221 -1.998527 -9.004078 -13.502265 20.105015 -7.825270 9.150250 -15.269614 -21.044912 43.995850 44.997646 -60.001278 112.995110 1.998652 -8.998194 22.263624 -12.715433 -10.131053 -35.071808 14.722068 0.486572 84.001801 3.877521 -0.587261 37.854870 2.493833 -2.817050 -35.071674 -14.726496 -0.488895 84.001953 -3.877773 0.582311 37.854942 -2.498270 2.814881 
